<mxfile host="app.diagrams.net" modified="2022-12-22T14:27:08.791Z" agent="5.0 (Macintosh)" version="20.6.2" etag="03kZ43VKDrQuirf-ay01" type="github">
  <diagram id="qJ6w7HNwzbd-sbemGm2J" name="Page-1">
    <mxGraphModel dx="786" dy="512" grid="1" gridSize="10" guides="1" tooltips="1" connect="1" arrows="1" fold="1" page="1" pageScale="1" pageWidth="1027" pageHeight="469" math="0" shadow="0">
      <root>
        <mxCell id="0" />
        <mxCell id="1" parent="0" />
        <mxCell id="L0vnab-JGndM7TkmbKC3-1" value="" style="whiteSpace=wrap;html=1;aspect=fixed;" vertex="1" parent="1">
          <mxGeometry x="220" y="10" width="400" height="400" as="geometry" />
        </mxCell>
        <mxCell id="L0vnab-JGndM7TkmbKC3-2" value="" style="rounded=0;whiteSpace=wrap;html=1;" vertex="1" parent="1">
          <mxGeometry x="230" y="20" width="380" height="60" as="geometry" />
        </mxCell>
        <mxCell id="L0vnab-JGndM7TkmbKC3-3" value="Countries of the World" style="text;html=1;strokeColor=none;fillColor=none;align=center;verticalAlign=middle;whiteSpace=wrap;rounded=0;" vertex="1" parent="1">
          <mxGeometry x="240" y="35" width="130" height="30" as="geometry" />
        </mxCell>
        <mxCell id="L0vnab-JGndM7TkmbKC3-4" value="" style="rounded=1;whiteSpace=wrap;html=1;" vertex="1" parent="1">
          <mxGeometry x="230" y="110" width="180" height="20" as="geometry" />
        </mxCell>
        <mxCell id="L0vnab-JGndM7TkmbKC3-5" value="&lt;div align=&quot;left&quot;&gt;Tell me about...&lt;br&gt;&lt;/div&gt;" style="text;html=1;strokeColor=none;fillColor=none;align=center;verticalAlign=middle;whiteSpace=wrap;rounded=0;" vertex="1" parent="1">
          <mxGeometry x="230" y="105" width="130" height="30" as="geometry" />
        </mxCell>
        <mxCell id="L0vnab-JGndM7TkmbKC3-6" value="&lt;h1&gt;Country&lt;/h1&gt;&lt;div&gt;Detail&lt;/div&gt;&lt;div&gt;Detail&lt;/div&gt;&lt;div&gt;Detail&lt;br&gt;&lt;/div&gt;" style="text;html=1;strokeColor=none;fillColor=none;spacing=5;spacingTop=-20;whiteSpace=wrap;overflow=hidden;rounded=0;" vertex="1" parent="1">
          <mxGeometry x="470" y="105" width="130" height="115" as="geometry" />
        </mxCell>
        <mxCell id="L0vnab-JGndM7TkmbKC3-7" value="" style="rounded=1;whiteSpace=wrap;html=1;" vertex="1" parent="1">
          <mxGeometry x="490" y="220" width="90" height="30" as="geometry" />
        </mxCell>
        <mxCell id="L0vnab-JGndM7TkmbKC3-8" value="Save Country" style="text;html=1;strokeColor=none;fillColor=none;align=center;verticalAlign=middle;whiteSpace=wrap;rounded=0;" vertex="1" parent="1">
          <mxGeometry x="490" y="220" width="90" height="30" as="geometry" />
        </mxCell>
        <mxCell id="L0vnab-JGndM7TkmbKC3-10" value="&lt;h1&gt;Your Faves&lt;br&gt;&lt;/h1&gt;&lt;p&gt;Country&lt;/p&gt;&lt;p&gt;Country&lt;/p&gt;&lt;p&gt;Country&lt;br&gt;&lt;/p&gt;" style="text;html=1;strokeColor=none;fillColor=none;spacing=5;spacingTop=-20;whiteSpace=wrap;overflow=hidden;rounded=0;" vertex="1" parent="1">
          <mxGeometry x="230" y="165" width="160" height="140" as="geometry" />
        </mxCell>
      </root>
    </mxGraphModel>
  </diagram>
</mxfile>
